<?xml version="1.0" encoding="UTF-8"?>
<svg width="1200px" height="620px" viewBox="0 0 1200 620" version="1.1" xmlns="http://www.w3.org/2000/svg" xmlns:xlink="http://www.w3.org/1999/xlink">
    <title>monads-social-cover</title>
    <defs>
        <linearGradient x1="100%" y1="48.5655823%" x2="0%" y2="51.4344177%" id="linearGradient-1">
            <stop stop-color="#32C5FF" offset="0%"></stop>
            <stop stop-color="#B620E0" offset="51.2583893%"></stop>
            <stop stop-color="#F7B500" offset="100%"></stop>
        </linearGradient>
    </defs>
    <g id="monads-social-cover" stroke="none" stroke-width="1" fill="none" fill-rule="evenodd">
        <rect fill="#FFFFFF" x="0" y="0" width="1200" height="620"></rect>
        <path d="M230.2,378 L230.2,327.2 C230.2,321.733333 231.8,317.066667 235,313.2 C238.2,309.333333 242.066667,307.4 246.6,307.4 C250.866667,307.4 254.166667,309.133333 256.5,312.6 C258.833333,316.066667 260,321.2 260,328 L260,328 L260,378 L301.8,378 L301.8,327.2 C301.8,321.733333 303.433333,317.066667 306.7,313.2 C309.966667,309.333333 313.866667,307.4 318.4,307.4 C322.533333,307.4 325.766667,309.133333 328.1,312.6 C330.433333,316.066667 331.6,321.2 331.6,328 L331.6,328 L331.6,378 L373.8,378 L373.8,328 C373.8,317.466667 372.2,308.3 369,300.5 C365.8,292.7 361.3,286.733333 355.5,282.6 C349.7,278.466667 342.933333,276.4 335.2,276.4 C318.933333,276.4 306.533333,283.666667 298,298.2 C295.066667,291.533333 290.7,286.233333 284.9,282.3 C279.1,278.366667 272.266667,276.4 264.4,276.4 C256.4,276.4 249.5,278.3 243.7,282.1 C237.9,285.9 232.733333,291.733333 228.2,299.6 L228.2,299.6 L228.2,279.2 L188,279.2 L188,378 L230.2,378 Z M445.8,379.6 C457.133333,379.6 467.166667,377.433333 475.9,373.1 C484.633333,368.766667 491.433333,362.7 496.3,354.9 C501.166667,347.1 503.6,338.066667 503.6,327.8 C503.6,317.666667 501.2,308.733333 496.4,301 C491.6,293.266667 484.833333,287.233333 476.1,282.9 C467.366667,278.566667 457.333333,276.4 446,276.4 C434.8,276.4 424.833333,278.533333 416.1,282.8 C407.366667,287.066667 400.533333,293.1 395.6,300.9 C390.666667,308.7 388.2,317.666667 388.2,327.8 C388.2,337.933333 390.633333,346.9 395.5,354.7 C400.366667,362.5 407.166667,368.6 415.9,373 C424.633333,377.4 434.6,379.6 445.8,379.6 Z M446.2,349.6 C440.733333,349.6 436.233333,347.566667 432.7,343.5 C429.166667,339.433333 427.4,334.2 427.4,327.8 C427.4,321.4 429.166667,316.166667 432.7,312.1 C436.233333,308.033333 440.733333,306 446.2,306 C451.666667,306 456.166667,308.033333 459.7,312.1 C463.233333,316.166667 465,321.4 465,327.8 C465,334.2 463.233333,339.433333 459.7,343.5 C456.166667,347.566667 451.666667,349.6 446.2,349.6 Z M560.8,378 L560.8,331.2 C560.8,326.266667 561.766667,321.866667 563.7,318 C565.633333,314.133333 568.133333,311.166667 571.2,309.1 C574.266667,307.033333 577.4,306 580.6,306 C585,306 588.433333,307.533333 590.9,310.6 C593.366667,313.666667 594.6,318.066667 594.6,323.8 L594.6,323.8 L594.6,378 L636.6,378 L636.6,328 C636.6,311.866667 632.966667,299.233333 625.7,290.1 C618.433333,280.966667 608.4,276.4 595.6,276.4 C578.8,276.4 566.533333,284.133333 558.8,299.6 L558.8,299.6 L558.8,279.2 L518.6,279.2 L518.6,378 L560.8,378 Z M700.2,379.6 C715.4,379.6 726.333333,372.866667 733,359.4 L733,359.4 L733,378 L775,378 L775,276.4 L733,276.4 L733,299.6 C729.933333,291.866667 725.433333,286.066667 719.5,282.2 C713.566667,278.333333 707.133333,276.4 700.2,276.4 C691.666667,276.4 683.6,278.6 676,283 C668.4,287.4 662.333333,293.5 657.8,301.3 C653.266667,309.1 651,317.8 651,327.4 C651,337.133333 653.266667,345.966667 657.8,353.9 C662.333333,361.833333 668.366667,368.1 675.9,372.7 C683.433333,377.3 691.533333,379.6 700.2,379.6 Z M713.2,348 C707.733333,348 703,346.066667 699,342.2 C695,338.333333 693,333.6 693,328 C693,322.533333 694.966667,317.833333 698.9,313.9 C702.833333,309.966667 707.6,308 713.2,308 C718.266667,308 722.766667,309.866667 726.7,313.6 C730.633333,317.333333 732.733333,321.866667 733,327.2 L733,327.2 L733,328.8 C732.733333,334 730.7,338.5 726.9,342.3 C723.1,346.1 718.533333,348 713.2,348 Z M839,379.6 C854.733333,379.6 865.733333,372.866667 872,359.4 L872,359.4 L872,378 L914.2,378 L914.2,240 L872,246.2 L872,296.6 C868.666667,289.533333 864.3,284.4 858.9,281.2 C853.5,278 846.933333,276.4 839.2,276.4 C830.666667,276.4 822.633333,278.666667 815.1,283.2 C807.566667,287.733333 801.566667,293.966667 797.1,301.9 C792.633333,309.833333 790.4,318.533333 790.4,328 C790.4,336.933333 792.533333,345.366667 796.8,353.3 C801.066667,361.233333 806.9,367.6 814.3,372.4 C821.7,377.2 829.933333,379.6 839,379.6 Z M852.2,348 C846.866667,348 842.233333,346.066667 838.3,342.2 C834.366667,338.333333 832.4,333.6 832.4,328 C832.4,322.533333 834.3,317.833333 838.1,313.9 C841.9,309.966667 846.6,308 852.2,308 C857.4,308 862,309.9 866,313.7 C870,317.5 872,322 872,327.2 L872,327.2 L872,328 C872,333.333333 870.1,338 866.3,342 C862.5,346 857.8,348 852.2,348 Z M969.2,379.6 C983.066667,379.6 993.7,376.566667 1001.1,370.5 C1008.5,364.433333 1012.2,356.133333 1012.2,345.6 C1012.2,336.4 1009.2,329.133333 1003.2,323.8 C997.2,318.466667 988.133333,314.733333 976,312.6 C969.333333,311.4 966,309.333333 966,306.4 C966,304.8 966.866667,303.533333 968.6,302.6 C970.333333,301.666667 973.466667,301.2 978,301.2 C981.066667,301.2 984.9,301.6 989.5,302.4 C994.1,303.2 998.333333,304.333333 1002.2,305.8 L1002.2,305.8 L1006.4,282 C1002.26667,280 997.7,278.566667 992.7,277.7 C987.7,276.833333 981.733333,276.4 974.8,276.4 C961.2,276.4 950.466667,279.2 942.6,284.8 C934.733333,290.4 930.533333,298.466667 930,309 C930,318.333333 932.433333,325.533333 937.3,330.6 C942.166667,335.666667 950.133333,339.266667 961.2,341.4 C966.533333,342.333333 970.166667,343.4 972.1,344.6 C974.033333,345.8 975,347.333333 975,349.2 C975,352.933333 971.666667,354.8 965,354.8 C955.933333,354.8 946.6,353.066667 937,349.6 L937,349.6 L932.4,373.4 C942.933333,377.533333 955.2,379.6 969.2,379.6 Z" id="monads" fill="url(#linearGradient-1)" fill-rule="nonzero"></path>
    </g>
</svg>